<?xml version="1.0"?>
<svg xmlns="http://www.w3.org/2000/svg" height="512px" viewBox="0 0 128 128" width="512px"><g><g><path d="m60.969 34.7a15.857 15.857 0 1 0 -31.337-4.875l-.3 1.982a4.958 4.958 0 0 0 -2.978 4.237l-1.031 13.8a5.1 5.1 0 0 0 1.959 4.4 134.044 134.044 0 0 0 .818 16.146l.861 7.661a14.323 14.323 0 0 0 28.539-2.086l-.19-5.6a130.6 130.6 0 0 1 .238-13.241 5.06 5.06 0 0 0 3.967-4.581l1.03-13.8a5.063 5.063 0 0 0 -1.22-3.7c-.106-.129-.236-.231-.356-.343zm-15.654-14.827a12.366 12.366 0 0 1 12.325 13.397l-24.713-1.846.164-1.068a12.3 12.3 0 0 1 12.224-10.483zm5.656 64.1a10.824 10.824 0 0 1 -18.537-6.313l-.861-7.66a130.378 130.378 0 0 1 -.8-14.643l23.271 1.738c-.295 4.448-.382 8.942-.231 13.389l.19 5.6a10.732 10.732 0 0 1 -3.032 7.89zm7.057-31.693a1.594 1.594 0 0 1 -1.709 1.473l-.255-.019h-.019-.021l-25.744-1.924a1.6 1.6 0 0 1 -1.471-1.71l.391-5.244 18.362 1.181h.114a1.75 1.75 0 0 0 .11-3.5l-18.325-1.17.378-5.065a1.6 1.6 0 0 1 1.588-1.476c.04 0 .081 0 .121.005l26.039 1.944a1.6 1.6 0 0 1 1.472 1.709z" data-original="#000000" class="active-path" data-old_color="#000000" fill="#455D58"/><path d="m102.682 70.691-1.031-13.8a4.963 4.963 0 0 0 -2.978-4.239l-.305-1.98a15.856 15.856 0 1 0 -31.336 4.873 4.893 4.893 0 0 0 -.361.345 5.061 5.061 0 0 0 -1.22 3.7l1.03 13.8a5.094 5.094 0 0 0 3.967 4.58 130.591 130.591 0 0 1 .238 13.241l-.19 5.6a14.323 14.323 0 0 0 28.548 2.089l.861-7.661a134.383 134.383 0 0 0 .819-16.151 5.1 5.1 0 0 0 1.958-4.397zm-29.615-25.375a12.37 12.37 0 0 1 21.842 5.893l.164 1.068-24.708 1.845a12.3 12.3 0 0 1 2.702-8.806zm-4.126 14.02a1.6 1.6 0 0 1 1.472-1.708l26.039-1.944a1.594 1.594 0 0 1 1.709 1.47l.378 5.065-18.325 1.181a1.75 1.75 0 0 0 .11 3.5h.114l18.362-1.191.391 5.243a1.6 1.6 0 0 1 -.852 1.532c-.04.016-.079.031-.118.049a1.548 1.548 0 0 1 -.5.129l-26.04 1.944a1.593 1.593 0 0 1 -1.709-1.47zm27.486 31.516-.861 7.661a10.823 10.823 0 0 1 -21.572-1.576l.19-5.6c.15-4.448.064-8.941-.231-13.39l23.271-1.737a130.563 130.563 0 0 1 -.797 14.642z" data-original="#000000" class="active-path" data-old_color="#000000" fill="#455D58"/></g></g> </svg>
